<svg xmlns="http://www.w3.org/2000/svg" viewBox="0 0 62.53 63.75"><defs><style>.cls-1{fill:#13758c;}.cls-2{fill:#fdd403;}</style></defs><g id="Layer_2" data-name="Layer 2"><g id="Layer_1-2" data-name="Layer 1"><path class="cls-1" d="M21.19,27H15.35V21.19h5.84ZM15.35,48.41V42.57H35.78v5.84Zm5.84-27.22V15.35H41.62v5.84ZM35.78,32.86H21.19V27H35.78Zm0,9.71V32.86h5.84v9.71Z"/><polygon class="cls-1" points="10.07 10.07 7.67 10.07 5.28 10.07 5.28 7.67 5.28 5.28 7.67 5.28 10.07 5.28 10.07 7.67 10.07 10.07"/><polygon class="cls-1" points="57.26 10.07 54.86 10.07 52.46 10.07 52.46 7.67 52.46 5.28 54.86 5.28 57.26 5.28 57.26 7.67 57.26 10.07"/><polygon class="cls-1" points="10.07 58.48 7.67 58.48 5.28 58.48 5.28 56.08 5.28 53.68 7.67 53.68 10.07 53.68 10.07 56.08 10.07 58.48"/><path class="cls-2" d="M47.19,6.69H15.35V0H0V15.35H6.69V48.41H0V63.75H15.35V57.07h40.5v-2H15.35V48.41H8.66V15.35h6.69V8.66H47.19v6.69h6.68v5.84h2V15.35h6.68V0H47.19ZM13.37,61.78H2V50.38h11.4Zm0-48.41H2V2h11.4ZM49.16,2h11.4v11.4H49.16Z"/></g></g></svg>