<svg xmlns="http://www.w3.org/2000/svg" viewBox="0 0 198 270"><defs><style>.cls-1{fill:#fce600;}.cls-2{fill:#fff;}.cls-3{fill:#231f20;}.cls-4{fill:#00303f;}.cls-5{fill:none;stroke:#746e00;stroke-miterlimit:10;stroke-width:0.75px;opacity:0.2;}.cls-6{fill:#13758c;}</style></defs><g id="Layer_2" data-name="Layer 2"><g id="Layer_1-2" data-name="Layer 1"><rect class="cls-1" x="-36" y="36" width="270" height="198" transform="translate(234 36) rotate(90)"/><rect class="cls-1" x="9" y="9" width="180" height="252"/><rect class="cls-2" x="31.39" y="41.27" width="135.21" height="141.59" rx="9.89" transform="translate(211.06 13.06) rotate(90)"/><path class="cls-3" d="M42.15,130.66a1.9,1.9,0,0,1-.64.78,1.61,1.61,0,0,1-.92.31V131a1.32,1.32,0,0,0,.86-.43,1.89,1.89,0,0,0,0-2.19,1.13,1.13,0,0,0-.89-.4,1.06,1.06,0,0,0-.69.22,1.26,1.26,0,0,0-.39.55,8.08,8.08,0,0,0-.29.9,7.27,7.27,0,0,1-.35,1.06,1.7,1.7,0,0,1-.53.67,1.66,1.66,0,0,1-1,.27,1.7,1.7,0,0,1-.92-.26,1.85,1.85,0,0,1-.64-.76,2.63,2.63,0,0,1-.23-1.12,2.27,2.27,0,0,1,.46-1.49,1.71,1.71,0,0,1,1.17-.66v.73a1.13,1.13,0,0,0-.73.45,1.77,1.77,0,0,0,0,2,1,1,0,0,0,.87.4,1,1,0,0,0,.68-.22,1.42,1.42,0,0,0,.39-.54,7.43,7.43,0,0,0,.29-.9,7.84,7.84,0,0,1,.36-1,1.69,1.69,0,0,1,.54-.68,1.57,1.57,0,0,1,1-.28,1.76,1.76,0,0,1,.89.25,1.81,1.81,0,0,1,.68.74,2.45,2.45,0,0,1,.26,1.16A2.87,2.87,0,0,1,42.15,130.66Z"/><path class="cls-3" d="M38.28,126a2.28,2.28,0,0,1-.93-.89,2.6,2.6,0,0,1-.33-1.31,2.55,2.55,0,0,1,.47-1.6,2.21,2.21,0,0,1,1.3-.8v.71a1.5,1.5,0,0,0-.88.58,1.89,1.89,0,0,0-.32,1.11,1.85,1.85,0,0,0,.24.94,1.71,1.71,0,0,0,.71.67,2.55,2.55,0,0,0,1.16.24,2.6,2.6,0,0,0,1.17-.24,1.65,1.65,0,0,0,.71-.67,1.85,1.85,0,0,0,.24-.94,1.82,1.82,0,0,0-.32-1.11,1.49,1.49,0,0,0-.89-.58v-.71a2.15,2.15,0,0,1,1.29.81,2.49,2.49,0,0,1,.49,1.59,2.6,2.6,0,0,1-.33,1.31,2.25,2.25,0,0,1-.94.89,3.22,3.22,0,0,1-2.84,0Z"/><path class="cls-3" d="M38.28,120.18a2.28,2.28,0,0,1-.93-.89A2.53,2.53,0,0,1,37,118a2.33,2.33,0,0,1,.34-1.28,2,2,0,0,1,.88-.78H37.09v-.67h5.22v.67H41.16a2.14,2.14,0,0,1,.88.79,2.34,2.34,0,0,1,.35,1.28,2.4,2.4,0,0,1-.34,1.28,2.31,2.31,0,0,1-.94.89,3.29,3.29,0,0,1-2.83,0Zm.31-4a1.76,1.76,0,0,0-.73.7,1.84,1.84,0,0,0-.26,1,1.92,1.92,0,0,0,.25,1,1.68,1.68,0,0,0,.72.7,2.32,2.32,0,0,0,1.12.25,2.41,2.41,0,0,0,1.13-.25,1.76,1.76,0,0,0,.73-.7,2.07,2.07,0,0,0,0-2,1.79,1.79,0,0,0-.74-.7,2.5,2.5,0,0,0-2.22,0Z"/><path class="cls-3" d="M37.58,109.76a2.24,2.24,0,0,1,1.67-.59h3.06v.66h-3a1.79,1.79,0,0,0-1.3.43,1.51,1.51,0,0,0-.45,1.16,1.57,1.57,0,0,0,.48,1.2,2,2,0,0,0,1.4.45h2.85v.67H37.09v-.67H38a1.64,1.64,0,0,1-.73-.72,2.16,2.16,0,0,1-.25-1.06A2.1,2.1,0,0,1,37.58,109.76Z"/><path class="cls-3" d="M35.72,98.54h6.59v.67H37l5.27,2.35v.49l-5.25,2.35h5.25v.67H35.72v-.71l5.71-2.55-5.71-2.55Z"/><path class="cls-3" d="M40,92.32v4.33a2.1,2.1,0,0,0,1-.29,1.67,1.67,0,0,0,.64-.68,2,2,0,0,0,.21-.91,1.85,1.85,0,0,0-.31-1.1,1.51,1.51,0,0,0-.85-.59v-.7a2.23,2.23,0,0,1,1.25.81,2.52,2.52,0,0,1,.48,1.58,2.58,2.58,0,0,1-.33,1.31,2.31,2.31,0,0,1-.94.92,3.22,3.22,0,0,1-2.84,0,2.23,2.23,0,0,1-.94-.91A2.61,2.61,0,0,1,37,94.77a2.52,2.52,0,0,1,.32-1.31,2.32,2.32,0,0,1,.87-.86,2.53,2.53,0,0,1,1.22-.3Zm-1.54.89a1.6,1.6,0,0,0-.62.67,2,2,0,0,0-.21.91,1.85,1.85,0,0,0,.48,1.28,1.9,1.9,0,0,0,1.34.58V93A1.86,1.86,0,0,0,38.42,93.21Z"/><path class="cls-3" d="M155.89,93.39a1.9,1.9,0,0,1,.64-.78,1.59,1.59,0,0,1,.92-.31V93a1.32,1.32,0,0,0-.86.43,1.85,1.85,0,0,0,0,2.19,1.13,1.13,0,0,0,.89.4,1.08,1.08,0,0,0,.69-.22,1.26,1.26,0,0,0,.39-.55,8.08,8.08,0,0,0,.29-.9,7.27,7.27,0,0,1,.35-1.06,1.7,1.7,0,0,1,.53-.67,1.64,1.64,0,0,1,1-.27,1.7,1.7,0,0,1,.92.26,1.85,1.85,0,0,1,.64.76,2.63,2.63,0,0,1,.23,1.12A2.27,2.27,0,0,1,162,96a1.71,1.71,0,0,1-1.17.66v-.73a1.16,1.16,0,0,0,.73-.45,1.77,1.77,0,0,0,0-2,1.17,1.17,0,0,0-1.55-.19,1.53,1.53,0,0,0-.39.55,7.43,7.43,0,0,0-.29.9,7.84,7.84,0,0,1-.36,1,1.78,1.78,0,0,1-.54.68,1.6,1.6,0,0,1-1,.28,1.76,1.76,0,0,1-.89-.25,1.81,1.81,0,0,1-.68-.74,2.45,2.45,0,0,1-.26-1.16A2.87,2.87,0,0,1,155.89,93.39Z"/><path class="cls-3" d="M159.76,98a2.28,2.28,0,0,1,.93.89,2.87,2.87,0,0,1-.14,2.91,2.21,2.21,0,0,1-1.3.8v-.71a1.5,1.5,0,0,0,.88-.58,1.89,1.89,0,0,0,.32-1.11,1.85,1.85,0,0,0-.24-.94,1.77,1.77,0,0,0-.71-.67,2.55,2.55,0,0,0-1.16-.24,2.6,2.6,0,0,0-1.17.24,1.74,1.74,0,0,0-.72.67,2,2,0,0,0-.23.94,1.82,1.82,0,0,0,.32,1.11,1.49,1.49,0,0,0,.89.58v.71a2.15,2.15,0,0,1-1.29-.81,2.49,2.49,0,0,1-.49-1.59,2.6,2.6,0,0,1,.33-1.31,2.25,2.25,0,0,1,.94-.89,3.22,3.22,0,0,1,2.84,0Z"/><path class="cls-3" d="M159.76,103.87a2.28,2.28,0,0,1,.93.89,2.53,2.53,0,0,1,.33,1.29,2.33,2.33,0,0,1-.34,1.28,2,2,0,0,1-.88.78H161v.67h-5.22v-.67h1.15a2.14,2.14,0,0,1-.88-.79,2.34,2.34,0,0,1-.35-1.28,2.4,2.4,0,0,1,.34-1.28,2.25,2.25,0,0,1,.94-.89,3.29,3.29,0,0,1,2.83,0Zm-.31,4a1.82,1.82,0,0,0,.73-.7,1.94,1.94,0,0,0,.26-1,1.92,1.92,0,0,0-.25-1,1.68,1.68,0,0,0-.72-.7,2.34,2.34,0,0,0-1.12-.25,2.41,2.41,0,0,0-1.13.25,1.76,1.76,0,0,0-.73.7,2,2,0,0,0,0,2,1.79,1.79,0,0,0,.74.7,2.5,2.5,0,0,0,2.22,0Z"/><path class="cls-3" d="M160.46,114.29a2.24,2.24,0,0,1-1.67.59h-3.06v-.66h3a1.79,1.79,0,0,0,1.3-.43,1.51,1.51,0,0,0,.45-1.16,1.57,1.57,0,0,0-.48-1.2,2,2,0,0,0-1.4-.45h-2.85v-.67H161V111h-.89a1.64,1.64,0,0,1,.73.72,2.16,2.16,0,0,1,.25,1.06A2.1,2.1,0,0,1,160.46,114.29Z"/><path class="cls-3" d="M162.32,125.51h-6.59v-.67H161l-5.27-2.35V122l5.25-2.35h-5.25V119h6.59v.71l-5.71,2.55,5.71,2.55Z"/><path class="cls-3" d="M158.08,131.73V127.4a2.1,2.1,0,0,0-1,.29,1.67,1.67,0,0,0-.64.68,2,2,0,0,0-.21.91,1.85,1.85,0,0,0,.31,1.1,1.48,1.48,0,0,0,.85.59v.7a2.23,2.23,0,0,1-1.25-.81,2.52,2.52,0,0,1-.48-1.58A2.58,2.58,0,0,1,156,128a2.31,2.31,0,0,1,.94-.92,3.22,3.22,0,0,1,2.84,0,2.23,2.23,0,0,1,.94.91,2.61,2.61,0,0,1,.32,1.32,2.52,2.52,0,0,1-.32,1.31,2.27,2.27,0,0,1-.88.86,2.48,2.48,0,0,1-1.22.3Zm1.54-.89a1.6,1.6,0,0,0,.62-.67,2,2,0,0,0,.21-.91A1.85,1.85,0,0,0,160,128a1.92,1.92,0,0,0-1.35-.58v3.67A1.88,1.88,0,0,0,159.62,130.84Z"/><path class="cls-4" d="M46.88,194.54a8.71,8.71,0,0,1,3.34-3.31A9.54,9.54,0,0,1,55,190a9.39,9.39,0,0,1,5.4,1.57,8.18,8.18,0,0,1,3.23,4.33H59.37a4.42,4.42,0,0,0-1.78-2,5.31,5.31,0,0,0-2.65-.65,5.41,5.41,0,0,0-2.85.75,5,5,0,0,0-2,2.1,6.81,6.81,0,0,0-.7,3.18,6.89,6.89,0,0,0,.7,3.18,5,5,0,0,0,2,2.11,5.41,5.41,0,0,0,2.85.75,5.22,5.22,0,0,0,2.65-.67,4.45,4.45,0,0,0,1.78-2H63.6a8.13,8.13,0,0,1-3.22,4.35,10.15,10.15,0,0,1-10.16.36,8.68,8.68,0,0,1-3.34-3.3,10,10,0,0,1,0-9.63Z"/><path class="cls-4" d="M69.45,207.81a6.74,6.74,0,0,1-2.65-2.62,7.83,7.83,0,0,1-1-3.92,7.64,7.64,0,0,1,1-3.92,6.87,6.87,0,0,1,2.7-2.62,8.29,8.29,0,0,1,7.63,0,6.87,6.87,0,0,1,2.7,2.62,7.64,7.64,0,0,1,1,3.92,7.46,7.46,0,0,1-1,3.92,7,7,0,0,1-2.73,2.62,8,8,0,0,1-3.86.93A7.71,7.71,0,0,1,69.45,207.81Zm5.67-2.74a3.46,3.46,0,0,0,1.41-1.45,4.86,4.86,0,0,0,.53-2.35A4.33,4.33,0,0,0,76,198.1,3.58,3.58,0,0,0,73.29,197a3.51,3.51,0,0,0-2.64,1.11,4.4,4.4,0,0,0-1.07,3.17,4.47,4.47,0,0,0,1,3.17,3.44,3.44,0,0,0,2.62,1.11A3.87,3.87,0,0,0,75.12,205.07Z"/><path class="cls-4" d="M95.85,195.46A6.23,6.23,0,0,1,97.46,200v8.48H93.77v-8a3.77,3.77,0,0,0-.86-2.65,3.08,3.08,0,0,0-2.37-.92,3.14,3.14,0,0,0-2.41.92,3.69,3.69,0,0,0-.88,2.65v8H83.56V194h3.69v1.8a5,5,0,0,1,1.88-1.48,5.94,5.94,0,0,1,2.51-.53A5.63,5.63,0,0,1,95.85,195.46Z"/><path class="cls-4" d="M105.25,197v7a1.37,1.37,0,0,0,.36,1.06,1.78,1.78,0,0,0,1.2.32h1.71v3.08H106.2c-3.11,0-4.66-1.49-4.66-4.49v-7H99.8v-3h1.74v-3.58h3.71V194h3.27v3Z"/><path class="cls-4" d="M111.11,197.33a6.31,6.31,0,0,1,5.78-3.53,5.82,5.82,0,0,1,4.82,2.3V194h3.71V208.5h-3.71v-2.11a5.49,5.49,0,0,1-2,1.68,6,6,0,0,1-2.89.67,6.16,6.16,0,0,1-3.35-.94,6.64,6.64,0,0,1-2.4-2.65,8.43,8.43,0,0,1-.88-3.93A8.29,8.29,0,0,1,111.11,197.33ZM121.18,199a3.76,3.76,0,0,0-1.42-1.46,3.83,3.83,0,0,0-1.92-.51,3.77,3.77,0,0,0-1.9.5,3.72,3.72,0,0,0-1.41,1.45,4.5,4.5,0,0,0-.54,2.26,4.63,4.63,0,0,0,.54,2.28A3.91,3.91,0,0,0,116,205a3.73,3.73,0,0,0,1.89.52,3.83,3.83,0,0,0,1.92-.51,3.76,3.76,0,0,0,1.42-1.46,5.21,5.21,0,0,0,0-4.58Z"/><path class="cls-4" d="M129,197.34a6.54,6.54,0,0,1,2.55-2.61,7.44,7.44,0,0,1,3.74-.93,7.22,7.22,0,0,1,4.49,1.35,6.5,6.5,0,0,1,2.38,3.77h-4a2.9,2.9,0,0,0-1.07-1.48,3.17,3.17,0,0,0-1.86-.53,3.08,3.08,0,0,0-2.5,1.13,5,5,0,0,0-.92,3.23,5,5,0,0,0,.92,3.2,3.05,3.05,0,0,0,2.5,1.14,2.82,2.82,0,0,0,2.93-2h4a6.69,6.69,0,0,1-2.39,3.74,7.14,7.14,0,0,1-4.48,1.38,7.44,7.44,0,0,1-3.74-.93A6.54,6.54,0,0,1,129,205.2a8.85,8.85,0,0,1,0-7.86Z"/><path class="cls-4" d="M149.16,197v7a1.37,1.37,0,0,0,.36,1.06,1.8,1.8,0,0,0,1.2.32h1.71v3.08h-2.32c-3.11,0-4.66-1.49-4.66-4.49v-7h-1.74v-3h1.74v-3.58h3.71V194h3.27v3Z"/><path class="cls-4" d="M38,213l-5.28,14.27h-3.5L24,213h3.09L31,224.36,34.94,213Z"/><path class="cls-4" d="M50.27,222.47H41.92a2.84,2.84,0,0,0,.87,1.93,2.69,2.69,0,0,0,1.87.69A2.36,2.36,0,0,0,47,223.72h3.11a5.13,5.13,0,0,1-1.9,2.69,5.56,5.56,0,0,1-3.44,1.05,6,6,0,0,1-2.95-.72,5.18,5.18,0,0,1-2-2.06,6.21,6.21,0,0,1-.73-3.06,6.38,6.38,0,0,1,.72-3.09,4.9,4.9,0,0,1,2-2,6.48,6.48,0,0,1,5.9,0,4.93,4.93,0,0,1,2,2,6,6,0,0,1,.71,2.93A7.18,7.18,0,0,1,50.27,222.47Zm-2.91-1.92a2.24,2.24,0,0,0-.8-1.76,2.83,2.83,0,0,0-1.92-.67,2.64,2.64,0,0,0-1.8.65,2.78,2.78,0,0,0-.9,1.78Z"/><path class="cls-4" d="M61.19,216.35A3.94,3.94,0,0,1,62.76,218a5.61,5.61,0,0,1,.57,2.63v6.64H60.44V221a2.87,2.87,0,0,0-.68-2.07,2.42,2.42,0,0,0-1.85-.73A2.5,2.5,0,0,0,56,219a2.88,2.88,0,0,0-.69,2.07v6.26H52.45V212.15h2.88v5.21a3.83,3.83,0,0,1,1.49-1.15,4.93,4.93,0,0,1,2.06-.42A4.76,4.76,0,0,1,61.19,216.35Z"/><path class="cls-4" d="M66.26,214.13a1.69,1.69,0,0,1,0-2.4,1.92,1.92,0,0,1,2.54,0,1.69,1.69,0,0,1,0,2.4,1.92,1.92,0,0,1-2.54,0ZM69,216v11.33H66.07V216Z"/><path class="cls-4" d="M71.78,218.54a5.08,5.08,0,0,1,2-2,5.77,5.77,0,0,1,2.93-.73,5.67,5.67,0,0,1,3.51,1,5.16,5.16,0,0,1,1.87,3H79a2.25,2.25,0,0,0-.83-1.16,2.44,2.44,0,0,0-1.45-.42,2.39,2.39,0,0,0-2,.89,3.93,3.93,0,0,0-.72,2.53,3.88,3.88,0,0,0,.72,2.5,2.39,2.39,0,0,0,2,.89A2.17,2.17,0,0,0,79,223.46h3.12a5.28,5.28,0,0,1-1.88,2.92,5.55,5.55,0,0,1-3.5,1.08,5.86,5.86,0,0,1-2.93-.72,5.17,5.17,0,0,1-2-2.05,6.84,6.84,0,0,1,0-6.15Z"/><path class="cls-4" d="M87.08,212.15v15.13H84.2V212.15Z"/><path class="cls-4" d="M100.45,222.47H92.11A2.83,2.83,0,0,0,93,224.4a2.71,2.71,0,0,0,1.88.69,2.35,2.35,0,0,0,2.28-1.37h3.12a5.19,5.19,0,0,1-1.9,2.69,5.56,5.56,0,0,1-3.44,1.05,6.06,6.06,0,0,1-3-.72,5.18,5.18,0,0,1-2-2.06,6.88,6.88,0,0,1,0-6.15,5,5,0,0,1,2-2,6.07,6.07,0,0,1,3-.72,6,6,0,0,1,2.92.7,4.9,4.9,0,0,1,2,2,5.86,5.86,0,0,1,.71,2.93A6.1,6.1,0,0,1,100.45,222.47Zm-2.9-1.92a2.25,2.25,0,0,0-.81-1.76,2.82,2.82,0,0,0-1.91-.67,2.6,2.6,0,0,0-1.8.65,2.78,2.78,0,0,0-.9,1.78Z"/><path class="cls-4" d="M110.51,226.48a7,7,0,0,1-2.68-2.61,7.64,7.64,0,0,1,0-7.52,7,7,0,0,1,2.68-2.6,7.79,7.79,0,0,1,7.42,0,6.92,6.92,0,0,1,2.66,2.6,7.7,7.7,0,0,1,0,7.52,6.9,6.9,0,0,1-2.67,2.61,7.77,7.77,0,0,1-7.41,0Zm6-2.2a4,4,0,0,0,1.55-1.66,5.44,5.44,0,0,0,.55-2.52,5.38,5.38,0,0,0-.55-2.5A4,4,0,0,0,116.5,216a4.89,4.89,0,0,0-4.58,0,4,4,0,0,0-1.56,1.65,5.38,5.38,0,0,0-.55,2.5,5.44,5.44,0,0,0,.55,2.52,3.92,3.92,0,0,0,1.56,1.66,4.74,4.74,0,0,0,4.58,0Z"/><path class="cls-4" d="M139.54,216l-3.34,11.33h-3.11L131,219.37l-2.09,7.91h-3.13L122.44,216h2.92l2,8.63,2.18-8.63h3.05l2.14,8.61,2-8.61Z"/><path class="cls-4" d="M150.72,217.07a4.86,4.86,0,0,1,1.26,3.57v6.64h-2.89V221a2.87,2.87,0,0,0-.68-2.07,2.42,2.42,0,0,0-1.85-.73,2.5,2.5,0,0,0-1.89.73A2.88,2.88,0,0,0,144,221v6.26H141.1V216H144v1.41a4,4,0,0,1,1.48-1.15,4.53,4.53,0,0,1,2-.42A4.42,4.42,0,0,1,150.72,217.07Z"/><path class="cls-4" d="M165.25,222.47H156.9a2.84,2.84,0,0,0,.87,1.93,2.69,2.69,0,0,0,1.87.69,2.36,2.36,0,0,0,2.29-1.37H165a5.13,5.13,0,0,1-1.9,2.69,5.56,5.56,0,0,1-3.44,1.05,6,6,0,0,1-2.95-.72,5.18,5.18,0,0,1-2-2.06,6.21,6.21,0,0,1-.73-3.06,6.38,6.38,0,0,1,.72-3.09,4.9,4.9,0,0,1,2-2,6.48,6.48,0,0,1,5.9,0,4.93,4.93,0,0,1,2,2,6,6,0,0,1,.71,2.93A7.18,7.18,0,0,1,165.25,222.47Zm-2.91-1.92a2.24,2.24,0,0,0-.8-1.76,2.83,2.83,0,0,0-1.92-.67,2.64,2.64,0,0,0-1.8.65,2.78,2.78,0,0,0-.9,1.78Z"/><path class="cls-4" d="M171.77,216.3a4,4,0,0,1,2-.51v3h-.77a3,3,0,0,0-2.05.63,2.91,2.91,0,0,0-.69,2.21v5.64h-2.88V216h2.88v1.76A4,4,0,0,1,171.77,216.3Z"/><path class="cls-3" d="M36.25,238.31v.43H35.12v3.67h-.54v-3.67H33.45v-.43Z"/><path class="cls-3" d="M39.19,239.28a1.1,1.1,0,0,1,.46.47,1.5,1.5,0,0,1,.17.76v1.9h-.53v-1.82a1,1,0,0,0-.24-.74,1,1,0,0,0-1.35,0,1.1,1.1,0,0,0-.25.77v1.78h-.54v-4.36h.54v1.59a1.16,1.16,0,0,1,.44-.38,1.45,1.45,0,0,1,.63-.13A1.47,1.47,0,0,1,39.19,239.28Z"/><path class="cls-3" d="M40.72,238.55a.34.34,0,0,1-.1-.26.37.37,0,0,1,.1-.26.39.39,0,0,1,.52,0,.42.42,0,0,1,.1.26.38.38,0,0,1-.1.26.36.36,0,0,1-.52,0Zm.53.63v3.23h-.54v-3.23Z"/><path class="cls-3" d="M42.64,242.34a1.19,1.19,0,0,1-.47-.35,1,1,0,0,1-.18-.52h.55a.54.54,0,0,0,.23.39.91.91,0,0,0,.54.15.78.78,0,0,0,.48-.13.42.42,0,0,0,.18-.34.33.33,0,0,0-.19-.32,2.19,2.19,0,0,0-.59-.2c-.24-.07-.43-.13-.58-.19a1.18,1.18,0,0,1-.4-.29.82.82,0,0,1-.16-.51.76.76,0,0,1,.15-.45,1,1,0,0,1,.42-.33,1.52,1.52,0,0,1,.62-.12,1.33,1.33,0,0,1,.87.27,1,1,0,0,1,.36.75h-.54a.56.56,0,0,0-.2-.41.82.82,0,0,0-.51-.16.81.81,0,0,0-.46.13.39.39,0,0,0-.17.32.36.36,0,0,0,.1.27.88.88,0,0,0,.27.16l.43.14a4.9,4.9,0,0,1,.57.18,1.17,1.17,0,0,1,.38.28.73.73,0,0,1,.16.48.8.8,0,0,1-.15.47,1,1,0,0,1-.42.34,1.49,1.49,0,0,1-.62.12A1.6,1.6,0,0,1,42.64,242.34Z"/><path class="cls-3" d="M50.15,243.19l-.82-.82a2.16,2.16,0,0,1-.62.09,2.11,2.11,0,0,1-1.05-.27,2.07,2.07,0,0,1-.75-.75,2.29,2.29,0,0,1,0-2.16,2.07,2.07,0,0,1,.75-.75,2.2,2.2,0,0,1,2.11,0,2,2,0,0,1,.74.74,2.08,2.08,0,0,1,.28,1.09,2.22,2.22,0,0,1-.26,1.06,2,2,0,0,1-.72.74l1,1Zm-2.76-2a1.35,1.35,0,0,0,.54.57,1.62,1.62,0,0,0,1.56,0,1.38,1.38,0,0,0,.55-.57,2,2,0,0,0,0-1.73,1.56,1.56,0,0,0-2.11-.57,1.48,1.48,0,0,0-.54.57,2,2,0,0,0,0,1.73Z"/><path class="cls-3" d="M53.69,242.41l-1-1.68h-.65v1.68h-.54v-4.1h1.33a1.9,1.9,0,0,1,.8.15,1.21,1.21,0,0,1,.39,1.8,1.17,1.17,0,0,1-.74.43l1,1.72Zm-1.64-2.11h.79a.9.9,0,0,0,.66-.21.76.76,0,0,0,.22-.58.73.73,0,0,0-.21-.56.94.94,0,0,0-.67-.2h-.79Z"/><path class="cls-3" d="M56.72,238.55a.31.31,0,0,1-.11-.26.36.36,0,0,1,.37-.36.33.33,0,0,1,.25.1.37.37,0,0,1,.1.26.36.36,0,0,1-.35.37A.35.35,0,0,1,56.72,238.55Zm.52.63v3.23H56.7v-3.23Z"/><path class="cls-3" d="M58.64,242.34a1.06,1.06,0,0,1-.47-.35.89.89,0,0,1-.19-.52h.56a.52.52,0,0,0,.22.39.91.91,0,0,0,.54.15.81.81,0,0,0,.49-.13.44.44,0,0,0,.17-.34.33.33,0,0,0-.19-.32,2.23,2.23,0,0,0-.58-.2c-.24-.07-.44-.13-.59-.19a1.14,1.14,0,0,1-.39-.29.8.8,0,0,1,0-1,1,1,0,0,1,.42-.33,1.52,1.52,0,0,1,.62-.12,1.38,1.38,0,0,1,.88.27,1,1,0,0,1,.35.75h-.54a.56.56,0,0,0-.2-.41.79.79,0,0,0-.5-.16.82.82,0,0,0-.47.13.39.39,0,0,0-.17.32.37.37,0,0,0,.11.27.72.72,0,0,0,.26.16l.43.14a3.9,3.9,0,0,1,.57.18,1.17,1.17,0,0,1,.38.28.73.73,0,0,1,.16.48.8.8,0,0,1-.15.47,1,1,0,0,1-.42.34,1.44,1.44,0,0,1-.61.12A1.57,1.57,0,0,1,58.64,242.34Z"/><path class="cls-3" d="M62.83,239.92a1.49,1.49,0,0,1,.56-.58,1.61,1.61,0,0,1,.82-.21,1.64,1.64,0,0,1,1,.29,1.33,1.33,0,0,1,.51.8h-.58a.8.8,0,0,0-.32-.46,1,1,0,0,0-.6-.18,1,1,0,0,0-.74.32,1.29,1.29,0,0,0-.29.89,1.34,1.34,0,0,0,.29.91,1,1,0,0,0,.74.31,1,1,0,0,0,.6-.16.88.88,0,0,0,.32-.47h.58a1.39,1.39,0,0,1-.52.79,1.57,1.57,0,0,1-1,.3,1.61,1.61,0,0,1-.82-.21,1.49,1.49,0,0,1-.56-.58,1.92,1.92,0,0,1-.2-.89A1.86,1.86,0,0,1,62.83,239.92Z"/><path class="cls-3" d="M67.38,239.28a1.26,1.26,0,0,1,.64-.15v.55h-.14c-.61,0-.91.33-.91,1v1.75h-.54v-3.23H67v.53A1,1,0,0,1,67.38,239.28Z"/><path class="cls-3" d="M71.59,241H69a1.05,1.05,0,0,0,.33.75,1.09,1.09,0,0,0,.73.26,1,1,0,0,0,.58-.16.83.83,0,0,0,.33-.43h.58a1.43,1.43,0,0,1-.52.76,1.76,1.76,0,0,1-1.8.08,1.47,1.47,0,0,1-.57-.59,1.76,1.76,0,0,1-.21-.88,1.93,1.93,0,0,1,.2-.88,1.45,1.45,0,0,1,.57-.58,1.74,1.74,0,0,1,.84-.2,1.65,1.65,0,0,1,.81.2,1.45,1.45,0,0,1,.55.55,1.63,1.63,0,0,1,.19.8C71.6,240.78,71.6,240.89,71.59,241Zm-.68-1a.87.87,0,0,0-.37-.34,1.14,1.14,0,0,0-.52-.12,1,1,0,0,0-.69.26,1,1,0,0,0-.33.72h2A1,1,0,0,0,70.91,240Z"/><path class="cls-3" d="M72.32,239.92a1.4,1.4,0,0,1,.55-.58,1.53,1.53,0,0,1,.79-.21,1.47,1.47,0,0,1,.74.18,1.27,1.27,0,0,1,.46.46v-.59h.55v3.23h-.55v-.6a1.18,1.18,0,0,1-.47.47,1.38,1.38,0,0,1-.74.19,1.47,1.47,0,0,1-.78-.21,1.45,1.45,0,0,1-.55-.6,1.81,1.81,0,0,1-.21-.87A1.75,1.75,0,0,1,72.32,239.92Zm2.4.24a1.16,1.16,0,0,0-.4-.42,1.19,1.19,0,0,0-.56-.14,1,1,0,0,0-.55.14,1,1,0,0,0-.4.41,1.44,1.44,0,0,0,0,1.28,1,1,0,0,0,.4.42,1.06,1.06,0,0,0,.55.15,1.09,1.09,0,0,0,.56-.15,1,1,0,0,0,.4-.42,1.29,1.29,0,0,0,.14-.64A1.27,1.27,0,0,0,74.72,240.16Z"/><path class="cls-3" d="M77,239.63v1.9a.42.42,0,0,0,.1.33.47.47,0,0,0,.35.1h.4v.45h-.49a.94.94,0,0,1-.67-.2.9.9,0,0,1-.23-.68v-1.9H76v-.45h.42v-.81H77v.81h.85v.45Z"/><path class="cls-3" d="M81.43,241h-2.6a1.05,1.05,0,0,0,.33.75,1.08,1.08,0,0,0,.72.26,1,1,0,0,0,.59-.16.94.94,0,0,0,.33-.43h.58a1.43,1.43,0,0,1-.52.76,1.76,1.76,0,0,1-1.8.08,1.35,1.35,0,0,1-.57-.59,1.76,1.76,0,0,1-.21-.88,1.93,1.93,0,0,1,.2-.88,1.39,1.39,0,0,1,.57-.58,1.73,1.73,0,0,1,.83-.2,1.66,1.66,0,0,1,.82.2,1.45,1.45,0,0,1,.55.55,1.63,1.63,0,0,1,.19.8C81.44,240.78,81.44,240.89,81.43,241Zm-.68-1a.87.87,0,0,0-.37-.34,1.14,1.14,0,0,0-.52-.12,1,1,0,0,0-1,1h2A1,1,0,0,0,80.75,240Z"/><path class="cls-3" d="M82.15,239.92a1.49,1.49,0,0,1,.56-.58,1.51,1.51,0,0,1,.79-.21,1.47,1.47,0,0,1,.71.18,1.19,1.19,0,0,1,.49.45v-1.71h.55v4.36H84.7v-.6a1.18,1.18,0,0,1-.47.47,1.38,1.38,0,0,1-.74.19,1.5,1.5,0,0,1-.78-.21,1.54,1.54,0,0,1-.56-.6,1.92,1.92,0,0,1-.2-.87A1.86,1.86,0,0,1,82.15,239.92Zm2.41.24a1.16,1.16,0,0,0-.4-.42,1.19,1.19,0,0,0-.56-.14,1,1,0,0,0-.55.14,1,1,0,0,0-.4.41,1.44,1.44,0,0,0,0,1.28,1,1,0,0,0,.4.42,1.06,1.06,0,0,0,.55.15,1.09,1.09,0,0,0,.56-.15,1,1,0,0,0,.4-.42,1.51,1.51,0,0,0,0-1.27Z"/><path class="cls-3" d="M89.07,239.63h-.69v2.78h-.53v-2.78h-.43v-.45h.43V239a1,1,0,0,1,.28-.79,1.31,1.31,0,0,1,.9-.25v.45a.73.73,0,0,0-.5.14.58.58,0,0,0-.15.45v.23h.69Z"/><path class="cls-3" d="M90.64,239.28a1.29,1.29,0,0,1,.64-.15v.55h-.14c-.6,0-.91.33-.91,1v1.75h-.54v-3.23h.54v.53A1,1,0,0,1,90.64,239.28Z"/><path class="cls-3" d="M92.5,242.26a1.46,1.46,0,0,1-.59-.59,1.89,1.89,0,0,1,0-1.75,1.46,1.46,0,0,1,.59-.59,1.84,1.84,0,0,1,1.67,0,1.5,1.5,0,0,1,.59.58,1.72,1.72,0,0,1,.22.88,1.77,1.77,0,0,1-.22.88,1.51,1.51,0,0,1-.61.59,1.69,1.69,0,0,1-.84.21A1.61,1.61,0,0,1,92.5,242.26Zm1.37-.4a1.08,1.08,0,0,0,.41-.41,1.44,1.44,0,0,0,0-1.32,1,1,0,0,0-.4-.4,1.13,1.13,0,0,0-.54-.13,1.08,1.08,0,0,0-.54.13,1,1,0,0,0-.4.4,1.34,1.34,0,0,0-.15.66,1.36,1.36,0,0,0,.15.67,1,1,0,0,0,.39.4,1.08,1.08,0,0,0,.53.14A1.15,1.15,0,0,0,93.87,241.86Z"/><path class="cls-3" d="M100.28,239.28a1.18,1.18,0,0,1,.47.47,1.61,1.61,0,0,1,.17.76v1.9h-.53v-1.82a1,1,0,0,0-.24-.74,1,1,0,0,0-1.32,0,1.08,1.08,0,0,0-.25.77v1.78h-.53v-1.82a1,1,0,0,0-.24-.74,1,1,0,0,0-1.32,0,1.08,1.08,0,0,0-.25.77v1.78H95.7v-3.23h.54v.47a1,1,0,0,1,.43-.39,1.31,1.31,0,0,1,.59-.13,1.44,1.44,0,0,1,.73.18,1.16,1.16,0,0,1,.47.53,1.1,1.1,0,0,1,.45-.53,1.34,1.34,0,0,1,.69-.18A1.48,1.48,0,0,1,100.28,239.28Z"/><path class="cls-3" d="M107.71,239.18l-1,3.23h-.56l-.78-2.56-.78,2.56H104l-1-3.23h.55l.75,2.72.81-2.72h.55l.79,2.72.73-2.72Z"/><path class="cls-3" d="M112.57,239.18l-1,3.23H111l-.78-2.56-.78,2.56h-.56l-1-3.23h.55l.75,2.72.81-2.72h.55l.79,2.72.73-2.72Z"/><path class="cls-3" d="M117.43,239.18l-1,3.23h-.56l-.78-2.56-.78,2.56h-.56l-1-3.23h.55l.75,2.72.81-2.72h.55l.79,2.72.73-2.72Z"/><path class="cls-3" d="M117.88,242.34a.35.35,0,0,1-.11-.26.34.34,0,0,1,.11-.25.33.33,0,0,1,.26-.11.31.31,0,0,1,.25.11.34.34,0,0,1,.11.25.35.35,0,0,1-.11.26.34.34,0,0,1-.25.11A.36.36,0,0,1,117.88,242.34Z"/><path class="cls-3" d="M119.69,242.34a1.19,1.19,0,0,1-.47-.35,1.06,1.06,0,0,1-.19-.52h.56a.54.54,0,0,0,.23.39.89.89,0,0,0,.54.15.78.78,0,0,0,.48-.13.42.42,0,0,0,.18-.34.33.33,0,0,0-.19-.32,2.33,2.33,0,0,0-.59-.2l-.59-.19a1.24,1.24,0,0,1-.39-.29.82.82,0,0,1,0-1,1,1,0,0,1,.42-.33,1.52,1.52,0,0,1,.62-.12,1.33,1.33,0,0,1,.87.27,1,1,0,0,1,.36.75H121a.54.54,0,0,0-.21-.41.77.77,0,0,0-.5-.16.81.81,0,0,0-.46.13.39.39,0,0,0-.17.32.36.36,0,0,0,.1.27,1,1,0,0,0,.26.16c.11,0,.25.09.44.14a4.9,4.9,0,0,1,.57.18,1.13,1.13,0,0,1,.37.28.73.73,0,0,1,.17.48.8.8,0,0,1-.15.47,1,1,0,0,1-.42.34,1.49,1.49,0,0,1-.62.12A1.6,1.6,0,0,1,119.69,242.34Z"/><path class="cls-3" d="M122.31,239.92a1.42,1.42,0,0,1,.56-.58,1.76,1.76,0,0,1,1.8.08,1.39,1.39,0,0,1,.52.8h-.58a.86.86,0,0,0-.33-.46,1,1,0,0,0-1.34.14,1.28,1.28,0,0,0-.28.89,1.34,1.34,0,0,0,.28.91,1,1,0,0,0,.75.31,1,1,0,0,0,.59-.16.85.85,0,0,0,.33-.47h.58a1.44,1.44,0,0,1-.52.79,1.57,1.57,0,0,1-1,.3,1.59,1.59,0,0,1-.82-.21,1.42,1.42,0,0,1-.56-.58,1.8,1.8,0,0,1-.2-.89A1.75,1.75,0,0,1,122.31,239.92Z"/><path class="cls-3" d="M125.9,239.92a1.57,1.57,0,0,1,2.09-.61,1.35,1.35,0,0,1,.46.46v-.59H129v3.23h-.55v-.6a1.18,1.18,0,0,1-.47.47,1.41,1.41,0,0,1-.74.19,1.47,1.47,0,0,1-.78-.21,1.54,1.54,0,0,1-.56-.6,1.92,1.92,0,0,1-.2-.87A1.86,1.86,0,0,1,125.9,239.92Zm2.41.24a1.16,1.16,0,0,0-.4-.42,1.19,1.19,0,0,0-.56-.14,1,1,0,0,0-.55.14,1,1,0,0,0-.4.41,1.44,1.44,0,0,0,0,1.28,1,1,0,0,0,.4.42,1.06,1.06,0,0,0,.55.15,1.09,1.09,0,0,0,.56-.15,1,1,0,0,0,.4-.42,1.51,1.51,0,0,0,0-1.27Z"/><path class="cls-3" d="M132.45,239.48a1.35,1.35,0,0,1,.37,1v1.9h-.53v-1.82a1,1,0,0,0-.25-.74.87.87,0,0,0-.66-.26.9.9,0,0,0-.68.27,1.1,1.1,0,0,0-.25.77v1.78h-.54v-3.23h.54v.46a1.09,1.09,0,0,1,.44-.38,1.32,1.32,0,0,1,.6-.13A1.29,1.29,0,0,1,132.45,239.48Z"/><path class="cls-3" d="M134.11,242h1.59v.44h-2.21V242l1.58-2.35H133.5v-.44h2.19v.44Z"/><path class="cls-3" d="M139.2,239.18l-2,4.76h-.55l.64-1.56-1.31-3.2h.6l1,2.62,1-2.62Z"/><path class="cls-3" d="M140.76,239.31a1.58,1.58,0,0,1,1.52,0,1.46,1.46,0,0,1,.55.58,1.75,1.75,0,0,1,.2.87,1.8,1.8,0,0,1-.2.87,1.45,1.45,0,0,1-1.34.81,1.41,1.41,0,0,1-.74-.19,1.16,1.16,0,0,1-.47-.46v.59h-.54v-4.36h.54v1.74A1.3,1.3,0,0,1,140.76,239.31Zm1.57.84a.93.93,0,0,0-.4-.41,1,1,0,0,0-.55-.14,1.15,1.15,0,0,0-.55.14,1.08,1.08,0,0,0-.4.42,1.42,1.42,0,0,0,0,1.27,1,1,0,0,0,.4.42,1.06,1.06,0,0,0,.55.15,1,1,0,0,0,.55-.15.91.91,0,0,0,.4-.42,1.44,1.44,0,0,0,0-1.28Z"/><path class="cls-3" d="M143.75,239.92a1.4,1.4,0,0,1,.55-.58,1.53,1.53,0,0,1,.79-.21,1.47,1.47,0,0,1,.71.18,1.19,1.19,0,0,1,.49.45v-1.71h.55v4.36h-.55v-.6a1.18,1.18,0,0,1-.47.47,1.36,1.36,0,0,1-.74.19,1.52,1.52,0,0,1-.78-.21,1.45,1.45,0,0,1-.55-.6,1.81,1.81,0,0,1-.21-.87A1.75,1.75,0,0,1,143.75,239.92Zm2.4.24a1.16,1.16,0,0,0-.4-.42,1.19,1.19,0,0,0-.56-.14,1,1,0,0,0-.55.14,1,1,0,0,0-.4.41,1.44,1.44,0,0,0,0,1.28,1,1,0,0,0,.4.42,1.06,1.06,0,0,0,.55.15,1.09,1.09,0,0,0,.56-.15,1,1,0,0,0,.4-.42,1.29,1.29,0,0,0,.14-.64A1.27,1.27,0,0,0,146.15,240.16Z"/><path class="cls-3" d="M147.66,242.34a.34.34,0,0,1-.1-.26.33.33,0,0,1,.1-.25.36.36,0,0,1,.52,0,.33.33,0,0,1,.1.25.34.34,0,0,1-.1.26.36.36,0,0,1-.52,0Z"/><path class="cls-3" d="M149,239.92a1.42,1.42,0,0,1,.56-.58,1.59,1.59,0,0,1,.82-.21,1.64,1.64,0,0,1,1,.29,1.43,1.43,0,0,1,.51.8h-.58a.86.86,0,0,0-.33-.46.94.94,0,0,0-.59-.18,1,1,0,0,0-.75.32,1.28,1.28,0,0,0-.28.89,1.34,1.34,0,0,0,.28.91,1,1,0,0,0,.75.31,1,1,0,0,0,.59-.16.85.85,0,0,0,.33-.47h.58a1.44,1.44,0,0,1-.52.79,1.57,1.57,0,0,1-1,.3,1.59,1.59,0,0,1-.82-.21,1.42,1.42,0,0,1-.56-.58,1.8,1.8,0,0,1-.2-.89A1.75,1.75,0,0,1,149,239.92Z"/><path class="cls-3" d="M153.18,242.26a1.5,1.5,0,0,1-.58-.59,1.89,1.89,0,0,1,0-1.75,1.46,1.46,0,0,1,.59-.59,1.84,1.84,0,0,1,1.67,0,1.5,1.5,0,0,1,.59.58,1.72,1.72,0,0,1,.22.88,1.77,1.77,0,0,1-.22.88,1.51,1.51,0,0,1-.61.59,1.77,1.77,0,0,1-1.67,0Zm1.38-.4a1.08,1.08,0,0,0,.41-.41,1.44,1.44,0,0,0,0-1.32,1,1,0,0,0-.4-.4,1.13,1.13,0,0,0-.54-.13,1.08,1.08,0,0,0-.54.13,1,1,0,0,0-.4.4,1.34,1.34,0,0,0-.15.66,1.36,1.36,0,0,0,.15.67,1,1,0,0,0,.39.4,1.08,1.08,0,0,0,.53.14A1.15,1.15,0,0,0,154.56,241.86Z"/><path class="cls-3" d="M161,239.28a1.18,1.18,0,0,1,.47.47,1.61,1.61,0,0,1,.17.76v1.9h-.53v-1.82a1,1,0,0,0-.24-.74,1,1,0,0,0-1.32,0,1.08,1.08,0,0,0-.25.77v1.78h-.53v-1.82a1,1,0,0,0-.24-.74.87.87,0,0,0-.65-.26.86.86,0,0,0-.67.27,1.08,1.08,0,0,0-.25.77v1.78h-.54v-3.23h.54v.47a1,1,0,0,1,.43-.39,1.31,1.31,0,0,1,.59-.13,1.44,1.44,0,0,1,.73.18,1.09,1.09,0,0,1,.46.53,1.16,1.16,0,0,1,.45-.53,1.4,1.4,0,0,1,.7-.18A1.48,1.48,0,0,1,161,239.28Z"/><path class="cls-3" d="M102.93,243v-.29H162V243Z"/><path class="cls-3" d="M66.29,245.84l-1.24,3.29h-.5l-1.25-3.29h.46l1,2.84,1-2.84Z"/><path class="cls-3" d="M66.78,246a.26.26,0,0,1-.08-.21.24.24,0,0,1,.08-.2.29.29,0,0,1,.21-.09.25.25,0,0,1,.2.09.24.24,0,0,1,.08.2.26.26,0,0,1-.08.21.25.25,0,0,1-.2.09A.29.29,0,0,1,66.78,246Zm.42.51v2.58h-.43v-2.58Z"/><path class="cls-3" d="M68.32,249.07a.92.92,0,0,1-.38-.28.76.76,0,0,1-.15-.42h.45a.42.42,0,0,0,.18.32.71.71,0,0,0,.43.12.67.67,0,0,0,.39-.11.33.33,0,0,0,.14-.27.28.28,0,0,0-.15-.26,3.08,3.08,0,0,0-.47-.16,3.78,3.78,0,0,1-.47-.15.82.82,0,0,1-.32-.23.65.65,0,0,1-.13-.41.6.6,0,0,1,.12-.36.76.76,0,0,1,.34-.26,1.27,1.27,0,0,1,.5-.1,1.08,1.08,0,0,1,.69.22.75.75,0,0,1,.29.59h-.43a.44.44,0,0,0-.17-.32.62.62,0,0,0-.4-.12.6.6,0,0,0-.37.1.3.3,0,0,0-.14.25.26.26,0,0,0,.09.21.55.55,0,0,0,.21.14l.34.11a3.56,3.56,0,0,1,.46.15.65.65,0,0,1,.3.22.56.56,0,0,1,.13.38.64.64,0,0,1-.12.38.89.89,0,0,1-.33.27,1.44,1.44,0,0,1-1,0Z"/><path class="cls-3" d="M70.42,246a.3.3,0,0,1-.08-.21.28.28,0,0,1,.08-.2.29.29,0,0,1,.21-.09.31.31,0,0,1,.29.29.27.27,0,0,1-.09.21.25.25,0,0,1-.2.09A.29.29,0,0,1,70.42,246Zm.42.51v2.58h-.43v-2.58Z"/><path class="cls-3" d="M72.1,246.9v1.52a.38.38,0,0,0,.08.27.43.43,0,0,0,.28.08h.32v.36h-.39a.78.78,0,0,1-.54-.17.69.69,0,0,1-.18-.54V246.9h-.34v-.35h.34v-.65h.43v.65h.68v.35Z"/><path class="cls-3" d="M75,245.84v2.08a.85.85,0,0,0,.22.65.81.81,0,0,0,.59.22.82.82,0,0,0,.6-.22.89.89,0,0,0,.22-.65v-2.08h.43v2.08a1.36,1.36,0,0,1-.17.69,1,1,0,0,1-.45.42,1.42,1.42,0,0,1-.63.13,1.45,1.45,0,0,1-.63-.13,1,1,0,0,1-.45-.42,1.35,1.35,0,0,1-.16-.69v-2.08Z"/><path class="cls-3" d="M78.15,249.07a.89.89,0,0,1-.37-.28.77.77,0,0,1-.16-.42h.45a.42.42,0,0,0,.18.32.73.73,0,0,0,.43.12.62.62,0,0,0,.39-.11.31.31,0,0,0,.14-.27.28.28,0,0,0-.15-.26,3.08,3.08,0,0,0-.47-.16,3.78,3.78,0,0,1-.47-.15.79.79,0,0,1-.31-.23.65.65,0,0,1,0-.77.78.78,0,0,1,.33-.26,1.31,1.31,0,0,1,.5-.1,1.1,1.1,0,0,1,.7.22.78.78,0,0,1,.28.59h-.43A.43.43,0,0,0,79,247a.63.63,0,0,0-.4-.12.58.58,0,0,0-.37.1.28.28,0,0,0-.14.25.29.29,0,0,0,.08.21.77.77,0,0,0,.21.14l.35.11a2.93,2.93,0,0,1,.45.15.65.65,0,0,1,.3.22.57.57,0,0,1,.14.38.64.64,0,0,1-.12.38.85.85,0,0,1-.34.27,1.26,1.26,0,0,1-.49.09A1.33,1.33,0,0,1,78.15,249.07Z"/><path class="cls-3" d="M82,249a1.16,1.16,0,0,1-.46-.47,1.36,1.36,0,0,1-.17-.71,1.48,1.48,0,0,1,.17-.7,1.16,1.16,0,0,1,.47-.46,1.41,1.41,0,0,1,1.34,0,1.1,1.1,0,0,1,.47.46,1.47,1.47,0,0,1,0,1.41,1.27,1.27,0,0,1-.48.47,1.42,1.42,0,0,1-.68.16A1.34,1.34,0,0,1,82,249Zm1.1-.32a.87.87,0,0,0,.33-.33,1.07,1.07,0,0,0,.12-.53,1.12,1.12,0,0,0-.12-.53.82.82,0,0,0-.32-.32.91.91,0,0,0-.43-.1.92.92,0,0,0-.44.1.8.8,0,0,0-.31.32,1.12,1.12,0,0,0-.12.53,1.13,1.13,0,0,0,.12.54.74.74,0,0,0,.31.32.87.87,0,0,0,.42.1A1,1,0,0,0,83.08,248.69Z"/><path class="cls-3" d="M85.3,246.62a1,1,0,0,1,.51-.12v.44H85.7q-.72,0-.72.78v1.41h-.44v-2.58H85V247A.78.78,0,0,1,85.3,246.62Z"/><path class="cls-3" d="M87.64,246.62a1.48,1.48,0,0,1,.59-.6,1.6,1.6,0,0,1,.84-.22,1.72,1.72,0,0,1,.94.26,1.46,1.46,0,0,1,.59.74h-.52a1,1,0,0,0-.39-.46,1.15,1.15,0,0,0-.62-.16,1.17,1.17,0,0,0-.62.16,1,1,0,0,0-.43.45,1.41,1.41,0,0,0-.16.69,1.38,1.38,0,0,0,.16.69,1.06,1.06,0,0,0,.43.46,1.27,1.27,0,0,0,.62.16,1.24,1.24,0,0,0,.62-.16,1,1,0,0,0,.39-.46h.52a1.43,1.43,0,0,1-.59.73,1.72,1.72,0,0,1-.94.26,1.6,1.6,0,0,1-.84-.22,1.52,1.52,0,0,1-.59-.59,1.71,1.71,0,0,1-.22-.87A1.67,1.67,0,0,1,87.64,246.62Z"/><path class="cls-3" d="M91.24,247.13a1.15,1.15,0,0,1,.44-.46,1.24,1.24,0,0,1,.63-.17,1.1,1.1,0,0,1,.59.15,1,1,0,0,1,.38.37v-.47h.43v2.58h-.43v-.48a1,1,0,0,1-.38.37,1.24,1.24,0,0,1-1.22,0,1.17,1.17,0,0,1-.44-.47,1.47,1.47,0,0,1-.16-.7A1.42,1.42,0,0,1,91.24,247.13Zm1.92.19a.92.92,0,0,0-.32-.33.94.94,0,0,0-.88,0,.73.73,0,0,0-.32.33,1.14,1.14,0,0,0,0,1,.81.81,0,0,0,.32.34.94.94,0,0,0,.88,0,.88.88,0,0,0,.32-.34,1,1,0,0,0,.12-.51A1.07,1.07,0,0,0,93.16,247.32Z"/><path class="cls-3" d="M94.88,245.64v3.49h-.43v-3.49Z"/><path class="cls-3" d="M96,245.64v3.49h-.43v-3.49Z"/><path class="cls-3" d="M98.58,247.22v.36H96.69v-.36Z"/><path class="cls-3" d="M99.58,246.12a1.19,1.19,0,0,1,1.86,0,3.26,3.26,0,0,1,0,2.55,1.17,1.17,0,0,1-1.86,0,3.26,3.26,0,0,1,0-2.55Zm1.64.57a.86.86,0,0,0-.22-.46.66.66,0,0,0-.49-.17.69.69,0,0,0-.49.17.94.94,0,0,0-.22.46,3.58,3.58,0,0,0,0,.7,3.63,3.63,0,0,0,0,.71.9.9,0,0,0,.22.46.66.66,0,0,0,.49.18.63.63,0,0,0,.49-.18.83.83,0,0,0,.22-.46,3.55,3.55,0,0,0,.06-.71A3.51,3.51,0,0,0,101.22,246.69Z"/><path class="cls-3" d="M102.18,246.11v-.39h.9v3.41h-.44v-3Z"/><path class="cls-3" d="M104.71,248a4.21,4.21,0,0,0,.57-.65,1.17,1.17,0,0,0,.24-.66.74.74,0,0,0-.15-.49.62.62,0,0,0-.48-.17.6.6,0,0,0-.5.2.82.82,0,0,0-.2.53h-.41a1.11,1.11,0,0,1,.32-.81,1,1,0,0,1,.78-.29,1.09,1.09,0,0,1,.78.27,1,1,0,0,1,.28.74,1.37,1.37,0,0,1-.23.76,3.41,3.41,0,0,1-.53.65c-.2.19-.46.41-.77.65H106v.36h-2.28v-.3Z"/><path class="cls-3" d="M106.87,245.9a1.22,1.22,0,0,1,.79-.25,1.18,1.18,0,0,1,.55.12.85.85,0,0,1,.36.31.87.87,0,0,1,.12.45.82.82,0,0,1-.17.51.75.75,0,0,1-.44.27v0a.86.86,0,0,1,.49.3.89.89,0,0,1,.18.58,1,1,0,0,1-.12.48.87.87,0,0,1-.37.34,1.37,1.37,0,0,1-.6.12,1.22,1.22,0,0,1-.82-.26,1,1,0,0,1-.36-.74h.42a.7.7,0,0,0,.23.46.76.76,0,0,0,.53.18.69.69,0,0,0,.5-.17.6.6,0,0,0,.18-.45.58.58,0,0,0-.24-.51,1.38,1.38,0,0,0-.72-.15h-.1v-.36h.11a1.3,1.3,0,0,0,.66-.14.48.48,0,0,0,.22-.44.52.52,0,0,0-.16-.4.68.68,0,0,0-.47-.15.72.72,0,0,0-.47.15.66.66,0,0,0-.22.41h-.42A.92.92,0,0,1,106.87,245.9Z"/><path class="cls-3" d="M109.23,248.37v-.32l1.66-2.3h.52V248h.47v.37h-.47v.76H111v-.76ZM111,246.2l-1.27,1.8H111Z"/><path class="cls-3" d="M115.77,246.09H114.1v1.08a.85.85,0,0,1,.33-.25,1.21,1.21,0,0,1,1.1.07.9.9,0,0,1,.35.42,1.41,1.41,0,0,1,.11.54,1.48,1.48,0,0,1-.13.61,1,1,0,0,1-.39.42,1.4,1.4,0,0,1-1.46-.1,1.06,1.06,0,0,1-.38-.67h.43a.77.77,0,0,0,.26.42.8.8,0,0,0,.5.15.68.68,0,0,0,.56-.23.85.85,0,0,0,.19-.59.8.8,0,0,0-.19-.57.73.73,0,0,0-.55-.2.78.78,0,0,0-.44.12.69.69,0,0,0-.28.33h-.4v-1.92h2.06Z"/><path class="cls-3" d="M117.82,246a.71.71,0,0,0-.63.32,2,2,0,0,0-.2,1.06.78.78,0,0,1,.36-.38,1.2,1.2,0,0,1,.57-.14,1.06,1.06,0,0,1,.78.3,1.17,1.17,0,0,1,.29.84,1.2,1.2,0,0,1-.13.57.94.94,0,0,1-.38.41,1.17,1.17,0,0,1-.61.15,1.15,1.15,0,0,1-.76-.22,1.06,1.06,0,0,1-.39-.6,3.57,3.57,0,0,1-.11-.94c0-1.15.41-1.73,1.22-1.73a1,1,0,0,1,.73.25,1.05,1.05,0,0,1,.31.63h-.4A.59.59,0,0,0,117.82,246Zm-.38,1.31a.7.7,0,0,0-.29.25.72.72,0,0,0-.11.4.84.84,0,0,0,.21.59.78.78,0,0,0,.6.22.7.7,0,0,0,.52-.2.76.76,0,0,0,.2-.56.83.83,0,0,0-.19-.58.71.71,0,0,0-.55-.21A.86.86,0,0,0,117.44,247.32Z"/><path class="cls-3" d="M121.68,246.06l-1.32,3.07h-.43l1.34-3h-1.84v-.37h2.25Z"/><path class="cls-3" d="M123.64,247.05a.89.89,0,0,1,0-.94.93.93,0,0,1,.38-.32,1.46,1.46,0,0,1,.62-.12,1.41,1.41,0,0,1,.61.12.87.87,0,0,1,.38.32.82.82,0,0,1,.13.46.76.76,0,0,1-.14.48.33.33,0,1,0,.06.62.83.83,0,0,1,.17.54,1,1,0,0,1-.15.54.94.94,0,0,1-.43.35,1.54,1.54,0,0,1-.63.12,1.59,1.59,0,0,1-.64-.12,1,1,0,0,1-.42-.35,1,1,0,0,1-.15-.54.85.85,0,0,1,.63-.85A.92.92,0,0,1,123.64,247.05Zm.41.66a.56.56,0,0,0-.22.49.58.58,0,0,0,.22.48.86.86,0,0,0,.58.19.9.9,0,0,0,.58-.19.6.6,0,0,0,.21-.48.57.57,0,0,0-.22-.49.94.94,0,0,0-.57-.16A1,1,0,0,0,124.05,247.71Zm1.1-1.53a1,1,0,0,0-1,0,.55.55,0,0,0-.19.45.5.5,0,0,0,.2.42.85.85,0,0,0,1,0,.53.53,0,0,0,.2-.42A.57.57,0,0,0,125.15,246.18Z"/><path class="cls-3" d="M127.19,248.63a.7.7,0,0,0,.47.15.64.64,0,0,0,.58-.31,1.93,1.93,0,0,0,.18-1,.75.75,0,0,1-.33.33,1.14,1.14,0,0,1-.52.12,1.2,1.2,0,0,1-.57-.13,1,1,0,0,1-.39-.38,1.27,1.27,0,0,1-.14-.6,1.13,1.13,0,0,1,.3-.82,1.1,1.1,0,0,1,.83-.31,1,1,0,0,1,.93.43,2.46,2.46,0,0,1,.27,1.28,3.78,3.78,0,0,1-.11,1,1.06,1.06,0,0,1-.36.59,1.05,1.05,0,0,1-.69.2,1.07,1.07,0,0,1-.76-.25,1,1,0,0,1-.3-.67H127A.71.71,0,0,0,127.19,248.63Zm1-1.3a.69.69,0,0,0,.21-.53.81.81,0,0,0-.2-.57.7.7,0,0,0-.56-.22.69.69,0,0,0-.53.21.86.86,0,0,0,0,1.1.73.73,0,0,0,.56.21A.72.72,0,0,0,128.16,247.33Z"/><path class="cls-3" d="M129.67,246.12a1.19,1.19,0,0,1,1.86,0,3.26,3.26,0,0,1,0,2.55,1.17,1.17,0,0,1-1.86,0,3.26,3.26,0,0,1,0-2.55Zm1.64.57a.94.94,0,0,0-.22-.46.69.69,0,0,0-.49-.17.68.68,0,0,0-.49.17.86.86,0,0,0-.22.46,3.51,3.51,0,0,0-.06.7,3.55,3.55,0,0,0,.06.71.83.83,0,0,0,.22.46.64.64,0,0,0,.49.18.66.66,0,0,0,.49-.18.9.9,0,0,0,.22-.46,3.63,3.63,0,0,0,.05-.71A3.58,3.58,0,0,0,131.31,246.69Z"/><line class="cls-5" x1="64.3" y1="233.54" x2="138.96" y2="233.54"/><path class="cls-6" d="M38.77,197.16a1.82,1.82,0,0,1-1.79-1.5L34.44,181a5.58,5.58,0,0,1,4.41-6.47l55.52-9.66a3.27,3.27,0,0,1,.54,0,3.21,3.21,0,0,1,1.73.51l7.48,4.9a3.14,3.14,0,0,1,1.38,2.1,3.18,3.18,0,0,1-.58,2.44l-5.69,7.6a3.15,3.15,0,0,1-2,1.22l-51.47,8.95a7.92,7.92,0,0,0-5.45,3.73,1.79,1.79,0,0,1-1.55.87Z"/><path class="cls-1" d="M94.91,166.09a2,2,0,0,1,1,.31l7.47,4.89a1.92,1.92,0,0,1,.49,2.75l-5.69,7.6a1.89,1.89,0,0,1-1.21.74l-51.47,9a9.17,9.17,0,0,0-6.3,4.31.55.55,0,0,1-.48.27.54.54,0,0,1-.55-.46L35.67,180.8a4.34,4.34,0,0,1,3.41-5l55.5-9.64a1.84,1.84,0,0,1,.33,0m0-2.5a4.87,4.87,0,0,0-.76.06l-55.5,9.65a6.84,6.84,0,0,0-5.44,7.92l2.54,14.66a3.06,3.06,0,0,0,5.64,1.05A6.7,6.7,0,0,1,46,193.79l51.47-8.95a4.39,4.39,0,0,0,2.78-1.7l5.69-7.6a4.42,4.42,0,0,0-1.12-6.34l-7.47-4.89a4.42,4.42,0,0,0-2.42-.72Z"/><path class="cls-2" d="M44.66,187.67a2.82,2.82,0,0,1-1.31-.67,2.39,2.39,0,0,1-.69-1.28l1.85-.35a1.2,1.2,0,0,0,.53.76,1.42,1.42,0,0,0,1,.13,1.5,1.5,0,0,0,.89-.47,1,1,0,0,0,.2-.82.89.89,0,0,0-.35-.58,1.63,1.63,0,0,0-.66-.28c-.26-.05-.6-.09-1-.13a10.16,10.16,0,0,1-1.46-.22,2.39,2.39,0,0,1-1-.55A2.06,2.06,0,0,1,42,182a2.28,2.28,0,0,1,.13-1.4,2.49,2.49,0,0,1,.9-1.07,3.91,3.91,0,0,1,1.52-.6,3.53,3.53,0,0,1,2.29.22,2.47,2.47,0,0,1,1.27,1.63l-1.9.36a1,1,0,0,0-.52-.66,1.52,1.52,0,0,0-1-.11,1.28,1.28,0,0,0-.76.41,1,1,0,0,0-.15.81.77.77,0,0,0,.33.53,1.92,1.92,0,0,0,.64.26,10.11,10.11,0,0,0,1,.14,8.8,8.8,0,0,1,1.46.23,2.42,2.42,0,0,1,1.06.56,2,2,0,0,1,.63,1.21,2.49,2.49,0,0,1-.11,1.35,2.71,2.71,0,0,1-.87,1.14,3.67,3.67,0,0,1-1.58.66A4.14,4.14,0,0,1,44.66,187.67Z"/><path class="cls-2" d="M49.76,180.12A4.22,4.22,0,0,1,51,178.26a4.79,4.79,0,0,1,4.79-.74,4,4,0,0,1,1.91,1.75l-2,.38a2.13,2.13,0,0,0-1-.76,2.46,2.46,0,0,0-1.3-.07,2.65,2.65,0,0,0-1.27.61,2.41,2.41,0,0,0-.72,1.16,3.26,3.26,0,0,0,0,1.56,3.38,3.38,0,0,0,.61,1.43,2.49,2.49,0,0,0,1.11.82,2.73,2.73,0,0,0,1.4.09,2.53,2.53,0,0,0,1.18-.55,2.14,2.14,0,0,0,.66-1.09l2-.38a3.86,3.86,0,0,1-1.12,2.33A4.46,4.46,0,0,1,54.83,186a4.6,4.6,0,0,1-2.34-.13,4.21,4.21,0,0,1-1.86-1.25,4.52,4.52,0,0,1-1-2.15A4.6,4.6,0,0,1,49.76,180.12Z"/><path class="cls-2" d="M65.31,182.24l-3.43.66-.26,1.74-1.81.35,1.45-9.17,2-.39,4.74,8-1.82.35ZM64.57,181l-1.93-3.35-.56,3.82Z"/><path class="cls-2" d="M76.54,181.78l-1.73.33-5-5.13,1.13,5.88-1.73.33-1.64-8.58,1.72-.33,5,5.14-1.13-5.89,1.73-.33Z"/><path class="cls-2" d="M85.39,171.2l.27,1.38-2.3.44,1.38,7.18-1.73.33-1.38-7.17-2.29.44-.27-1.39Z"/><path class="cls-2" d="M90,178.7a4.33,4.33,0,0,1-1.91-1.26,4.67,4.67,0,0,1-.87-4.51,4.34,4.34,0,0,1,1.31-1.87,4.44,4.44,0,0,1,2.11-1,4.58,4.58,0,0,1,2.33.13,4.3,4.3,0,0,1,1.9,1.26,4.53,4.53,0,0,1,1,2.14,4.44,4.44,0,0,1-.15,2.38,4.27,4.27,0,0,1-1.29,1.87,4.72,4.72,0,0,1-2.12,1A4.54,4.54,0,0,1,90,178.7Zm3.33-2a2.37,2.37,0,0,0,.73-1.18,3.29,3.29,0,0,0,0-1.57,3.37,3.37,0,0,0-.62-1.44,2.55,2.55,0,0,0-1.12-.81,2.74,2.74,0,0,0-1.43-.08,2.7,2.7,0,0,0-1.31.61,2.29,2.29,0,0,0-.74,1.17,3.25,3.25,0,0,0-.05,1.56,3.36,3.36,0,0,0,.62,1.45,2.47,2.47,0,0,0,1.13.82,2.67,2.67,0,0,0,1.44.08A2.58,2.58,0,0,0,93.31,176.69Z"/><path class="cls-3" d="M69.48,26.76h-2v-2h2Zm-2,7.37v-2h7v2Zm2-9.38v-2h7v2Zm5,4h-5v-2h5Zm0,3.35V28.77h2v3.35Z"/><path class="cls-3" d="M78.24,31.73a4.06,4.06,0,0,1,4.88-5.46,3.84,3.84,0,0,1,2.77,2.85H83.73a2.28,2.28,0,0,0-.36-.6c-1.17-1.26-3.28-.44-3.28,1.64,0,2.41,2.82,3,3.64,1h2.16C85,35.07,79.69,35.12,78.24,31.73Z"/><path class="cls-3" d="M88.84,33.89a3.5,3.5,0,0,1-1.11-.8,4.68,4.68,0,0,1,0-5.86,3.15,3.15,0,0,1,4.85.1h.07v-1h2.08V34H92.65V33h-.07A3.05,3.05,0,0,1,88.84,33.89Zm3.27-2.08a2.76,2.76,0,0,0,0-3.3c-1-1.08-3.25-.76-3.25,1.65S91.09,32.89,92.11,31.81Z"/><path class="cls-3" d="M96.37,26.37h2.08v1h.07a2.72,2.72,0,0,1,1.29-1.07,2.91,2.91,0,0,1,4.06,3V34h-2.08V29.64a1.7,1.7,0,1,0-3.34.29v4H96.37Z"/><path class="cls-3" d="M105,32.16l3.79-3.86v-.15h-3.64V26.37h6.39v1.78L107.74,32v.14h3.94V34H105Z"/><path class="cls-3" d="M115.84,34h-1.63l-2-7.58h2.16l1.48,5.79h.6l1.63-5.79h2.16l-3,10.4H115Z"/><polygon class="cls-3" points="65.65 20.92 64.83 20.92 64 20.92 64 20.09 64 19.27 64.83 19.27 65.65 19.27 65.65 20.09 65.65 20.92"/><polygon class="cls-3" points="81.91 20.92 81.09 20.92 80.26 20.92 80.26 20.09 80.26 19.27 81.09 19.27 81.91 19.27 81.91 20.09 81.91 20.92"/><polygon class="cls-3" points="65.65 37.6 64.83 37.6 64 37.6 64 36.77 64 35.95 64.83 35.95 65.65 35.95 65.65 36.77 65.65 37.6"/><path class="cls-3" d="M128.26,28.45v-.08a2.16,2.16,0,0,0,1.37-1.06A2.53,2.53,0,0,0,128,23.75c-.82-.28-1-.21-6.78-.21V34h5.28a5,5,0,0,0,1.63-.24,2.88,2.88,0,0,0,1.85-4.1A2.5,2.5,0,0,0,128.26,28.45Zm-4.84-2.9c2.87,0,3.39-.1,3.83.3.61.53.47,1.78-1,1.78h-2.83Zm4.14,6.05c-.51.45-1.22.34-4.14.34V29.56h2.9a1.84,1.84,0,0,1,1.24.35A1.1,1.1,0,0,1,127.56,31.6Z"/><path class="cls-3" d="M137.83,24c-1.34-.52-2.18-.41-6.08-.41V34h3.79a6.26,6.26,0,0,0,2.29-.41A5.1,5.1,0,0,0,137.83,24ZM138,31a2.83,2.83,0,0,1-1.05.63,4.11,4.11,0,0,1-1.4.23H134V25.62h1.56A3.16,3.16,0,0,1,138,31Z"/><path class="cls-3" d="M78.44,19.75h-11v-2.3H62.18v5.29h2.31V34.13H62.18v5.29h5.29V37.11h14v-.68h-14v-2.3h-2.3V22.74h2.3V20.43h11v2.31h2.31v2h.68v-2h2.3V17.45H78.44Zm-11.65,19H62.86V34.81h3.93Zm0-16.68H62.86V18.13h3.93Zm12.33-3.93h3.93v3.93H79.12Z"/></g></g></svg>