<svg xmlns="http://www.w3.org/2000/svg" viewBox="0 0 229.31 63.75"><defs><style>.cls-1{fill:#13758c;}.cls-2{fill:#fdd403;}</style></defs><g id="Layer_2" data-name="Layer 2"><g id="Layer_1-2" data-name="Layer 1"><path class="cls-1" d="M21.19,27H15.35V21.19h5.84ZM15.35,48.41V42.57H35.78v5.84Zm5.84-27.22V15.35H41.62v5.84ZM35.78,32.86H21.19V27H35.78Zm0,9.71V32.86h5.84v9.71Z"/><path class="cls-1" d="M46.61,41.43C42.76,32.37,51.05,23.1,60.76,25.6a11,11,0,0,1,8,8.26H62.53a6.53,6.53,0,0,0-1-1.72C58.07,28.48,52,30.86,52,36.88c0,7,8.19,8.82,10.57,3h6.25C66.18,51.12,50.79,51.29,46.61,41.43Z"/><path class="cls-1" d="M77.35,47.71a9.6,9.6,0,0,1-3.22-2.33c-4.06-4.44-3.92-12.71,0-17s10.82-4.16,14.07.3h.21v-2.8h6v22h-6v-2.8H88.2A8.87,8.87,0,0,1,77.35,47.71Zm9.49-6c2.12-2.27,2.12-7.31,0-9.58-2.92-3.12-9.43-2.19-9.43,4.79S83.9,44.81,86.84,41.67Z"/><path class="cls-1" d="M99.2,25.88h6v3h.21a7.89,7.89,0,0,1,3.73-3.08c2.65-1.22,11.8-1.59,11.8,8.69V47.88h-6V35.37a5.17,5.17,0,0,0-1.2-3.71c-2.63-2.72-8.5-1.05-8.5,4.57V47.88h-6Z"/><path class="cls-1" d="M124.22,42.71l11-11.22v-.43H124.65V25.88H143.2v5.18l-11,11.21v.44h11.43v5.17H124.22Z"/><path class="cls-1" d="M155.71,47.88H151l-5.83-22h6.26l4.31,16.83h1.73l4.74-16.83h6.26l-8.84,30.2h-6.26Z"/><polygon class="cls-1" points="10.07 10.07 7.67 10.07 5.28 10.07 5.28 7.67 5.28 5.28 7.67 5.28 10.07 5.28 10.07 7.67 10.07 10.07"/><polygon class="cls-1" points="57.26 10.07 54.86 10.07 52.46 10.07 52.46 7.67 52.46 5.28 54.86 5.28 57.26 5.28 57.26 7.67 57.26 10.07"/><polygon class="cls-1" points="10.07 58.48 7.67 58.48 5.28 58.48 5.28 56.08 5.28 53.68 7.67 53.68 10.07 53.68 10.07 56.08 10.07 58.48"/><path class="cls-2" d="M191.74,31.92V31.7a6.34,6.34,0,0,0,4-3.08c1.58-2.57,1.13-8.35-4.81-10.33-2.4-.8-2.92-.61-19.68-.61v30.2h15.32a14.75,14.75,0,0,0,4.72-.69c7.15-2.4,7-9.32,5.37-11.91A7.29,7.29,0,0,0,191.74,31.92Zm-14-8.41c8.33,0,9.81-.29,11.1.86,1.76,1.56,1.36,5.18-2.91,5.18h-8.19Zm12,17.56c-1.49,1.29-3.55,1-12,1v-6.9h8.41a5.41,5.41,0,0,1,3.6,1A3.2,3.2,0,0,1,189.73,41.07Z"/><path class="cls-2" d="M219.52,18.87c-3.88-1.52-6.33-1.19-17.65-1.19v30.2h11a18,18,0,0,0,6.64-1.18A14.79,14.79,0,0,0,219.52,18.87ZM220,39.34a8.41,8.41,0,0,1-3.06,1.86,12,12,0,0,1-4.05.64h-4.53V23.72h4.53C223.57,23.72,224.65,34.85,220,39.34Z"/><path class="cls-2" d="M47.19,6.69H15.35V0H0V15.35H6.69V48.41H0V63.75H15.35V57.07h40.5v-2H15.35V48.41H8.66V15.35h6.69V8.66H47.19v6.69h6.68v5.84h2V15.35h6.68V0H47.19ZM13.37,61.78H2V50.38h11.4Zm0-48.41H2V2h11.4ZM49.16,2h11.4v11.4H49.16Z"/></g></g></svg>