<?xml version="1.0" encoding="UTF-8"?>
<svg id="Layer_2" data-name="Layer 2" xmlns="http://www.w3.org/2000/svg" viewBox="0 0 142.4 39.59">
  <defs>
    <style>
      .cls-1 {
        fill: #13758c;
      }
    </style>
  </defs>
  <g id="Layer_1-2" data-name="Layer 1">
    <g>
      <path class="cls-1" d="M13.16,16.78h-3.63v-3.63h3.63v3.63ZM9.53,30.06v-3.63h12.69v3.63h-12.69ZM13.16,13.16v-3.63h12.69v3.63h-12.69ZM22.22,20.41h-9.06v-3.63h9.06v3.63ZM22.22,26.43v-6.03h3.63v6.03h-3.63Z"/>
      <path class="cls-1" d="M28.94,25.73c-2.39-5.63,2.76-11.38,8.79-9.83,2.63.68,4.31,2.63,4.98,5.13h-3.88c-.16-.39-.38-.75-.64-1.07-2.12-2.27-5.92-.79-5.92,2.95,0,4.35,5.09,5.48,6.56,1.88h3.88c-1.62,6.97-11.17,7.08-13.77.95Z"/>
      <path class="cls-1" d="M48.03,29.63c-.76-.34-1.42-.82-2-1.45-2.52-2.76-2.43-7.89,0-10.56,2.47-2.7,6.72-2.58,8.73.19h.13v-1.74h3.75v13.66h-3.75v-1.74h-.13c-1.58,2.18-4.44,2.66-6.74,1.63ZM53.93,25.88c1.32-1.41,1.32-4.54,0-5.95-1.81-1.94-5.85-1.36-5.85,2.97s4.03,4.92,5.85,2.97Z"/>
      <path class="cls-1" d="M61.6,16.07h3.75v1.88h.13c.53-.9,1.37-1.48,2.32-1.92,1.64-.75,7.33-.98,7.33,5.4v8.31h-3.75v-7.77c0-1.02-.25-1.79-.75-2.3-1.63-1.69-5.28-.66-5.28,2.84v7.23h-3.75v-13.66Z"/>
      <path class="cls-1" d="M77.14,26.52l6.83-6.97v-.27h-6.56v-3.21h11.52v3.21l-6.83,6.97v.27h7.1v3.21h-12.06v-3.21Z"/>
      <path class="cls-1" d="M96.7,29.74h-2.95l-3.62-13.66h3.88l2.68,10.45h1.07l2.95-10.45h3.88l-5.49,18.75h-3.88l1.47-5.09Z"/>
      <polygon class="cls-1" points="6.25 6.25 4.77 6.25 3.28 6.25 3.28 4.77 3.28 3.28 4.77 3.28 6.25 3.28 6.25 4.77 6.25 6.25"/>
      <polygon class="cls-1" points="35.56 6.25 34.07 6.25 32.58 6.25 32.58 4.77 32.58 3.28 34.07 3.28 35.56 3.28 35.56 4.77 35.56 6.25"/>
      <polygon class="cls-1" points="6.25 36.31 4.77 36.31 3.28 36.31 3.28 34.83 3.28 33.34 4.77 33.34 6.25 33.34 6.25 34.83 6.25 36.31"/>
      <g>
        <path class="cls-1" d="M119.07,19.82v-.13c1.23-.37,1.88-.95,2.48-1.92.98-1.6.7-5.19-2.99-6.42-1.49-.5-1.81-.38-12.22-.38v18.75h9.51c1.11,0,2.09-.14,2.93-.43,4.44-1.49,4.36-5.79,3.34-7.39-.68-1.07-1.62-1.78-3.05-2.09ZM110.36,14.6c5.17,0,6.09-.18,6.9.54,1.09.97.84,3.21-1.81,3.21h-5.09v-3.75ZM117.82,25.5c-.93.81-2.21.62-7.46.62v-4.29h5.22c1.02,0,1.76.21,2.24.62.95.83.95,2.23,0,3.05Z"/>
        <path class="cls-1" d="M136.32,11.72c-2.41-.95-3.93-.74-10.96-.74v18.75h6.83c1.5,0,2.88-.25,4.13-.74,8.08-3.17,8.13-14.08,0-17.28ZM136.62,24.43c-.52.5-1.15.88-1.9,1.15-.75.27-1.59.4-2.52.4h-2.81v-11.25h2.81c6.64,0,7.31,6.91,4.42,9.7Z"/>
        <path class="cls-1" d="M29.3,4.15H9.53V0H0v9.53h4.15v20.53H0v9.53h9.53v-4.15h25.15v-1.23H9.53v-4.15h-4.15V9.53h4.15v-4.15h19.77v4.15h4.15v3.63h1.23v-3.63h4.15V0h-9.53v4.15ZM8.31,38.37H1.23v-7.08h7.08v7.08ZM8.31,8.31H1.23V1.23h7.08v7.08ZM30.53,1.23h7.08v7.08h-7.08V1.23Z"/>
      </g>
    </g>
  </g>
</svg>