<?xml version="1.0" encoding="UTF-8"?>
<svg id="Layer_2" data-name="Layer 2" xmlns="http://www.w3.org/2000/svg" viewBox="0 0 97.29 49.18">
  <defs>
    <style>
      .cls-1 {
        fill: #13758c;
      }
    </style>
  </defs>
  <g id="Layer_1-2" data-name="Layer 1">
    <g>
      <path class="cls-1" d="M12.24,15.61h-3.37v-3.37h3.37v3.37ZM8.87,27.96v-3.37h11.8v3.37h-11.8ZM12.24,12.24v-3.37h11.8v3.37h-11.8ZM20.67,18.98h-8.43v-3.37h8.43v3.37ZM20.67,24.59v-5.6h3.37v5.6h-3.37Z"/>
      <path class="cls-1" d="M26.92,23.93c-2.22-5.23,2.57-10.59,8.17-9.15,2.45.63,4.01,2.45,4.63,4.77h-3.61c-.15-.37-.35-.7-.6-1-1.97-2.11-5.51-.73-5.51,2.74,0,4.05,4.73,5.1,6.11,1.74h3.61c-1.5,6.48-10.39,6.58-12.81.88Z"/>
      <path class="cls-1" d="M44.68,27.56c-.71-.32-1.32-.76-1.86-1.35-2.35-2.57-2.26-7.34,0-9.82,2.3-2.51,6.25-2.4,8.12.17h.12v-1.62h3.49v12.71h-3.49v-1.62h-.12c-1.47,2.02-4.13,2.47-6.27,1.52ZM50.16,24.07c1.22-1.31,1.22-4.22,0-5.53-1.69-1.8-5.44-1.27-5.44,2.77s3.75,4.58,5.44,2.77Z"/>
      <path class="cls-1" d="M57.3,14.95h3.49v1.74h.12c.49-.84,1.28-1.38,2.16-1.78,1.53-.7,6.82-.91,6.82,5.02v7.72h-3.49v-7.23c0-.95-.23-1.66-.7-2.14-1.52-1.57-4.91-.61-4.91,2.64v6.73h-3.49v-12.71Z"/>
      <path class="cls-1" d="M71.75,24.67l6.35-6.48v-.25h-6.11v-2.99h10.72v2.99l-6.35,6.48v.25h6.6v2.99h-11.21v-2.99Z"/>
      <path class="cls-1" d="M89.94,27.66h-2.74l-3.36-12.71h3.61l2.49,9.72h1l2.74-9.72h3.61l-5.11,17.44h-3.61l1.37-4.73Z"/>
      <polygon class="cls-1" points="5.82 5.82 4.43 5.82 3.05 5.82 3.05 4.43 3.05 3.05 4.43 3.05 5.82 3.05 5.82 4.43 5.82 5.82"/>
      <polygon class="cls-1" points="33.07 5.82 31.69 5.82 30.3 5.82 30.3 4.43 30.3 3.05 31.69 3.05 33.07 3.05 33.07 4.43 33.07 5.82"/>
      <polygon class="cls-1" points="5.82 33.78 4.43 33.78 3.05 33.78 3.05 32.39 3.05 31.01 4.43 31.01 5.82 31.01 5.82 32.39 5.82 33.78"/>
      <g>
        <path class="cls-1" d="M47.05,39.96v-.12c1.15-.34,1.75-.88,2.31-1.78.91-1.49.65-4.82-2.78-5.97-1.39-.46-1.68-.35-11.36-.35v17.44h8.85c1.03,0,1.94-.13,2.73-.4,4.13-1.39,4.05-5.39,3.1-6.88-.63-1-1.51-1.65-2.84-1.94ZM38.95,35.1c4.81,0,5.67-.17,6.42.5,1.01.9.79,2.99-1.68,2.99h-4.73v-3.49ZM45.89,45.24c-.86.75-2.05.57-6.94.57v-3.99h4.86c.95,0,1.64.19,2.08.57.89.77.89,2.07,0,2.84Z"/>
        <path class="cls-1" d="M63.1,32.42c-2.24-.88-3.66-.69-10.19-.69v17.44h6.35c1.4,0,2.67-.23,3.84-.69,7.52-2.95,7.56-13.1,0-16.07ZM63.37,44.25c-.48.47-1.07.82-1.77,1.07-.7.25-1.48.37-2.34.37h-2.62v-10.47h2.62c6.17,0,6.8,6.42,4.11,9.02Z"/>
        <path class="cls-1" d="M27.25,3.86H8.86V0H0v8.86h3.86v19.09H0v8.86h8.86v-3.86h23.39v-1.14H8.86v-3.86h-3.86V8.86h3.86v-3.86h18.39v3.86h3.86v3.37h1.14v-3.37h3.86V0h-8.86v3.86ZM7.72,35.68H1.14v-6.58h6.58v6.58ZM7.72,7.72H1.14V1.14h6.58v6.58ZM28.39,1.14h6.58v6.58h-6.58V1.14Z"/>
      </g>
    </g>
  </g>
</svg>